<svg width="30" height="30" viewBox="0 0 30 30" fill="none" xmlns="http://www.w3.org/2000/svg">
<path d="M21.3715 11.724C21.3836 11.6061 21.2911 11.5036 21.1725 11.5036H17.3486V8.85034C17.3486 7.85392 18.009 7.62161 18.4742 7.62161C18.8565 7.62161 20.5467 7.62161 21.1301 7.62161C21.2406 7.62161 21.329 7.53207 21.329 7.42161V3.4404C21.329 3.33024 21.2399 3.24083 21.1298 3.2404L17.3973 3.22583C13.0327 3.22583 12.0395 6.4929 12.0395 8.58364V11.5036H9.71538C9.60492 11.5036 9.51538 11.5931 9.51538 11.7036V15.8174C9.51538 15.9278 9.60492 16.0174 9.71538 16.0174H12.0395C12.0395 21.2364 12.0395 27.4189 12.0395 28.5924C12.0395 28.7028 12.129 28.7898 12.2395 28.7898H17.1486C17.2591 28.7898 17.3486 28.7027 17.3486 28.5922C17.3486 27.4125 17.3486 21.1769 17.3486 16.0174H20.7505C20.8531 16.0174 20.939 15.9398 20.9495 15.8378L21.3715 11.724Z" stroke="#17C1BC" stroke-width="2"/>
</svg>
