<svg width="40" height="40" viewBox="0 0 40 40" fill="none" xmlns="http://www.w3.org/2000/svg">
<circle cx="20" cy="20" r="20" fill="#EDEDED"/>
<path d="M28.84 12.6101C28.3292 12.0991 27.7228 11.6938 27.0554 11.4172C26.3879 11.1406 25.6725 10.9983 24.95 10.9983C24.2275 10.9983 23.5121 11.1406 22.8446 11.4172C22.1772 11.6938 21.5708 12.0991 21.06 12.6101L20 13.6701L18.94 12.6101C17.9083 11.5784 16.509 10.9988 15.05 10.9988C13.591 10.9988 12.1917 11.5784 11.16 12.6101C10.1283 13.6418 9.54871 15.0411 9.54871 16.5001C9.54871 17.9591 10.1283 19.3584 11.16 20.3901L12.22 21.4501L20 29.2301L27.78 21.4501L28.84 20.3901C29.351 19.8794 29.7563 19.2729 30.0329 18.6055C30.3095 17.938 30.4518 17.2226 30.4518 16.5001C30.4518 15.7776 30.3095 15.0622 30.0329 14.3948C29.7563 13.7273 29.351 13.1209 28.84 12.6101V12.6101Z" stroke="#D4D4D4" stroke-width="2" stroke-linecap="round" stroke-linejoin="round"/>
</svg>
