<svg width="19" height="19" viewBox="0 0 19 19" fill="none" xmlns="http://www.w3.org/2000/svg">
<g clip-path="url(#clip0_2_2977)">
<path d="M17.327 4.72489C17.292 4.67799 17.2482 4.63845 17.1979 4.60851C17.1476 4.57858 17.092 4.55884 17.0341 4.55044C16.9762 4.54203 16.9172 4.54511 16.8605 4.55951C16.8038 4.5739 16.7505 4.59933 16.7036 4.63434L9.52069 9.9959C9.49499 10.0152 9.46374 10.0256 9.43163 10.0256C9.39951 10.0256 9.36826 10.0152 9.34256 9.9959L2.30069 4.61059C2.2542 4.57511 2.20117 4.54914 2.14465 4.53416C2.08812 4.51917 2.02919 4.51547 1.97123 4.52325C1.91327 4.53104 1.85741 4.55017 1.80684 4.57954C1.75627 4.60892 1.71199 4.64797 1.67651 4.69446C1.64103 4.74095 1.61506 4.79397 1.60007 4.8505C1.58509 4.90703 1.58138 4.96596 1.58917 5.02392C1.59696 5.08188 1.61609 5.13774 1.64546 5.18831C1.67484 5.23887 1.71389 5.28316 1.76038 5.31864L7.29709 9.55356L1.82124 13.6801C1.77406 13.7153 1.73428 13.7594 1.70416 13.81C1.67405 13.8606 1.65418 13.9166 1.6457 13.9748C1.63723 14.033 1.6403 14.0924 1.65476 14.1494C1.66921 14.2065 1.69476 14.2601 1.72995 14.3073C1.76513 14.3544 1.80926 14.3942 1.85982 14.4243C1.91038 14.4545 1.96638 14.4743 2.02461 14.4828C2.08285 14.4913 2.14219 14.4882 2.19923 14.4737C2.25628 14.4593 2.30992 14.4337 2.3571 14.3986L8.03186 10.1147L8.80077 10.7084C8.98005 10.8456 9.19916 10.9207 9.42494 10.9224C9.65072 10.924 9.87087 10.852 10.0521 10.7173L10.8596 10.1147L16.6012 14.3986C16.648 14.4336 16.7014 14.459 16.7581 14.4734C16.8148 14.4877 16.8737 14.4908 16.9316 14.4824C16.9895 14.474 17.0452 14.4543 17.0955 14.4243C17.1457 14.3944 17.1896 14.3549 17.2246 14.308C17.2596 14.2611 17.285 14.2078 17.2994 14.1511C17.3138 14.0944 17.3168 14.0354 17.3084 13.9775C17.3 13.9197 17.2803 13.864 17.2504 13.8137C17.2205 13.7634 17.1809 13.7196 17.134 13.6846L11.6033 9.55208L17.2365 5.34387C17.3299 5.27332 17.3918 5.1688 17.4087 5.05296C17.4257 4.93711 17.3963 4.81925 17.327 4.72489V4.72489Z" fill="#282828"/>
<path d="M16.7734 2.82031H2.22656C1.63604 2.82031 1.06971 3.0549 0.652145 3.47246C0.234584 3.89002 0 4.45635 0 5.04688L0 13.9531C0 14.5436 0.234584 15.11 0.652145 15.5275C1.06971 15.9451 1.63604 16.1797 2.22656 16.1797H16.7734C17.364 16.1797 17.9303 15.9451 18.3479 15.5275C18.7654 15.11 19 14.5436 19 13.9531V5.04688C19 4.45635 18.7654 3.89002 18.3479 3.47246C17.9303 3.0549 17.364 2.82031 16.7734 2.82031ZM18.1094 13.9531C18.1094 14.3074 17.9686 14.6472 17.7181 14.8978C17.4676 15.1483 17.1278 15.2891 16.7734 15.2891H2.22656C1.87225 15.2891 1.53245 15.1483 1.28191 14.8978C1.03138 14.6472 0.890625 14.3074 0.890625 13.9531V5.04688C0.890625 4.69256 1.03138 4.35276 1.28191 4.10222C1.53245 3.85169 1.87225 3.71094 2.22656 3.71094H16.7734C17.1278 3.71094 17.4676 3.85169 17.7181 4.10222C17.9686 4.35276 18.1094 4.69256 18.1094 5.04688V13.9531Z" fill="#282828" stroke="#282828" stroke-width="0.5"/>
</g>
<defs>
<clipPath id="clip0_2_2977">
<rect width="19" height="19" fill="white"/>
</clipPath>
</defs>
</svg>
