<svg width="23" height="23" viewBox="0 0 23 23" fill="none" xmlns="http://www.w3.org/2000/svg">
<path d="M15.8125 13.4167C14.375 13.4167 13.225 13.8001 12.3625 14.2792C13.7042 15.4292 14.2792 16.7709 14.375 16.8667L14.4708 17.0584V19.1667H22.1375V17.2501C22.0417 17.2501 20.5083 13.4167 15.8125 13.4167Z" fill="#0499DD"/>
<path d="M15.8125 11.5001C17.665 11.5001 19.1667 9.99837 19.1667 8.14591C19.1667 6.29346 17.665 4.79175 15.8125 4.79175C13.9601 4.79175 12.4583 6.29346 12.4583 8.14591C12.4583 9.99837 13.9601 11.5001 15.8125 11.5001Z" fill="#0499DD"/>
<path d="M3.83334 8.14591C3.83334 6.32508 5.36668 4.79175 7.18751 4.79175C9.00834 4.79175 10.5417 6.32508 10.5417 8.14591C10.5417 9.96675 9.00834 11.5001 7.18751 11.5001C5.36668 11.5001 3.83334 9.96675 3.83334 8.14591ZM7.18751 13.4167C2.49168 13.4167 0.958344 17.2501 0.958344 17.2501V19.1667H13.4167V17.2501C13.4167 17.2501 11.8833 13.4167 7.18751 13.4167Z" fill="#0499DD"/>
</svg>
