<svg width="15" height="15" viewBox="0 0 15 15" fill="none" xmlns="http://www.w3.org/2000/svg">
<path d="M9.70012 4.41997C11.4012 4.41997 12.7801 3.92748 12.7801 3.31997C12.7801 2.71246 11.4012 2.21997 9.70012 2.21997C7.99908 2.21997 6.62012 2.71246 6.62012 3.31997C6.62012 3.92748 7.99908 4.41997 9.70012 4.41997Z" stroke="white" stroke-width="0.6" stroke-miterlimit="10" stroke-linecap="round" stroke-linejoin="round"/>
<path d="M6.62012 3.54004C6.62012 3.74068 6.62012 4.6594 6.62012 4.86004C6.62012 5.46746 7.99864 5.96004 9.70012 5.96004C11.4016 5.96004 12.7801 5.46746 12.7801 4.86004C12.7801 4.6594 12.7801 3.74068 12.7801 3.54004" stroke="white" stroke-width="0.6" stroke-miterlimit="10" stroke-linecap="round" stroke-linejoin="round"/>
<path d="M8.28125 7.37666C8.70585 7.45542 9.18853 7.50008 9.70025 7.50008C11.4017 7.50008 12.7803 7.0075 12.7803 6.40008C12.7803 6.19944 12.7803 5.28072 12.7803 5.08008" stroke="white" stroke-width="0.6" stroke-miterlimit="10" stroke-linecap="round" stroke-linejoin="round"/>
<path d="M6.62012 5.08008C6.62012 5.28072 6.62012 6.01948 6.62012 6.01948" stroke="white" stroke-width="0.6" stroke-miterlimit="10" stroke-linecap="round" stroke-linejoin="round"/>
<path d="M8.38574 8.93518C8.78438 9.0025 9.22988 9.04012 9.70024 9.04012C11.4017 9.04012 12.7802 8.54776 12.7802 7.94012C12.7802 7.73948 12.7802 6.82076 12.7802 6.62012" stroke="white" stroke-width="0.6" stroke-miterlimit="10" stroke-linecap="round" stroke-linejoin="round"/>
<path d="M8.36865 10.4724C8.77147 10.5414 9.22313 10.5802 9.70009 10.5802C11.4016 10.5802 12.7801 10.0878 12.7801 9.48016C12.7801 9.27952 12.7801 8.3608 12.7801 8.16016" stroke="white" stroke-width="0.6" stroke-miterlimit="10" stroke-linecap="round" stroke-linejoin="round"/>
<path d="M5.29973 8.15996C7.00076 8.15996 8.37973 7.66747 8.37973 7.05996C8.37973 6.45245 7.00076 5.95996 5.29973 5.95996C3.59869 5.95996 2.21973 6.45245 2.21973 7.05996C2.21973 7.66747 3.59869 8.15996 5.29973 8.15996Z" stroke="white" stroke-width="0.6" stroke-miterlimit="10" stroke-linecap="round" stroke-linejoin="round"/>
<path d="M2.21973 7.28003C2.21973 7.48067 2.21973 8.39939 2.21973 8.60003C2.21973 9.20767 3.59825 9.70003 5.29973 9.70003C7.00121 9.70003 8.37973 9.20767 8.37973 8.60003C8.37973 8.39939 8.37973 7.48067 8.37973 7.28003" stroke="white" stroke-width="0.6" stroke-miterlimit="10" stroke-linecap="round" stroke-linejoin="round"/>
<path d="M2.21973 8.81982C2.21973 9.02046 2.21973 9.93918 2.21973 10.1398C2.21973 10.7475 3.59825 11.2398 5.29973 11.2398C7.00121 11.2398 8.37973 10.7475 8.37973 10.1398C8.37973 9.93918 8.37973 9.02046 8.37973 8.81982" stroke="white" stroke-width="0.6" stroke-miterlimit="10" stroke-linecap="round" stroke-linejoin="round"/>
<path d="M2.21973 10.3599C2.21973 10.5605 2.21973 11.4792 2.21973 11.6799C2.21973 12.2875 3.59825 12.7799 5.29973 12.7799C7.00121 12.7799 8.37973 12.2875 8.37973 11.6799C8.37973 11.4792 8.37973 10.5605 8.37973 10.3599" stroke="white" stroke-width="0.6" stroke-miterlimit="10" stroke-linecap="round" stroke-linejoin="round"/>
</svg>
